<svg xmlns="http://www.w3.org/2000/svg" version="1.1" xmlns:xlink="http://www.w3.org/1999/xlink" xmlns:svgjs="http://svgjs.dev/svgjs" width="128" height="128" viewBox="0 0 128 128"><g transform="matrix(0.8046875,0,0,0.8046875,12.41184074821259,12.814873242367177)"><svg viewBox="0 0 98 98" data-background-color="#ffffff" preserveAspectRatio="xMidYMid meet" height="127" width="128" xmlns="http://www.w3.org/2000/svg" xmlns:xlink="http://www.w3.org/1999/xlink"><g id="tight-bounds" transform="matrix(1,0,0,1,0.08387967645792571,0.08387967645792571)"><svg viewBox="0 0 97.83224064708415 97.83224064708415" height="97.83224064708415" width="97.83224064708415"><g><svg></svg></g><g><svg viewBox="0 0 97.83224064708415 97.83224064708415" height="97.83224064708415" width="97.83224064708415"><g><path d="M0 48.916c0-27.016 21.9-48.916 48.916-48.916 27.016 0 48.916 21.9 48.916 48.916 0 27.016-21.9 48.916-48.916 48.916-27.016 0-48.916-21.9-48.916-48.916zM48.916 93.244c24.481 0 44.328-19.846 44.328-44.328 0-24.481-19.846-44.328-44.328-44.327-24.481 0-44.328 19.846-44.327 44.327 0 24.481 19.846 44.328 44.327 44.328z" data-fill-palette-color="tertiary" fill="#010c80" stroke="transparent"></path><ellipse rx="46.95947551060039" ry="46.95947551060039" cx="48.916120323542074" cy="48.916120323542074" fill="#010c80" stroke="transparent" stroke-width="0" fill-opacity="1" data-fill-palette-color="tertiary"></ellipse></g><g transform="matrix(1,0,0,1,23.47539391502934,23.47539391502934)"><svg viewBox="0 0 50.88145281702547 50.88145281702547" height="50.88145281702547" width="50.88145281702547"><g><svg viewBox="0 0 50.88145281702547 50.88145281702547" height="50.88145281702547" width="50.88145281702547"><g><svg viewBox="0 0 50.88145281702547 50.88145281702547" height="50.88145281702547" width="50.88145281702547"><g><svg viewBox="0 0 50.88145281702547 50.88145281702547" height="50.88145281702547" width="50.88145281702547"><g><svg viewBox="0 0 50.88145281702547 50.88145281702547" height="50.88145281702547" width="50.88145281702547"><g><svg viewBox="0 0 50.88145281702547 50.88145281702547" height="50.88145281702547" width="50.88145281702547"><g><svg xmlns="http://www.w3.org/2000/svg" xmlns:xlink="http://www.w3.org/1999/xlink" version="1.0" x="0" y="0" viewBox="1 1 48 48" enable-background="new 0 0 50 50" xml:space="preserve" height="50.88145281702547" width="50.88145281702547" class="icon-icon-0" data-fill-palette-color="quaternary" id="icon-0"><g fill="#ffffff" data-fill-palette-color="quaternary"><g fill="#ffffff" data-fill-palette-color="quaternary"><rect x="1" y="1" fill="#ffffff" width="23" height="5" data-fill-palette-color="quaternary"></rect><rect x="1" y="10" fill="#ffffff" width="23" height="5" data-fill-palette-color="quaternary"></rect><rect x="1" y="19" fill="#ffffff" width="23" height="5" data-fill-palette-color="quaternary"></rect></g><g fill="#ffffff" data-fill-palette-color="quaternary"><rect x="26" y="26" fill="#ffffff" width="23" height="5" data-fill-palette-color="quaternary"></rect><rect x="26" y="35" fill="#ffffff" width="23" height="5" data-fill-palette-color="quaternary"></rect><rect x="26" y="44" fill="#ffffff" width="23" height="5" data-fill-palette-color="quaternary"></rect></g><g fill="#ffffff" data-fill-palette-color="quaternary"><rect x="19" y="26" fill="#ffffff" width="5" height="23" data-fill-palette-color="quaternary"></rect><rect x="10" y="26" fill="#ffffff" width="5" height="23" data-fill-palette-color="quaternary"></rect><rect x="1" y="26" fill="#ffffff" width="5" height="23" data-fill-palette-color="quaternary"></rect></g><g fill="#ffffff" data-fill-palette-color="quaternary"><rect x="44" y="1" fill="#ffffff" width="5" height="23" data-fill-palette-color="quaternary"></rect><rect x="35" y="1" fill="#ffffff" width="5" height="23" data-fill-palette-color="quaternary"></rect><rect x="26" y="1" fill="#ffffff" width="5" height="23" data-fill-palette-color="quaternary"></rect></g></g></svg></g></svg></g></svg></g></svg></g></svg></g><g></g></svg></g></svg></g></svg></g><defs></defs></svg><rect width="97.83224064708415" height="97.83224064708415" fill="none" stroke="none" visibility="hidden"></rect></g></svg></g></svg>