<svg xmlns="http://www.w3.org/2000/svg" version="1.1" xmlns:xlink="http://www.w3.org/1999/xlink" xmlns:svgjs="http://svgjs.dev/svgjs" width="1000" height="999" viewBox="0 0 1000 999"><g transform="matrix(1,0,0,1,-0.215743440233382,-0.21552769679306039)"><svg viewBox="0 0 343 343" data-background-color="#ffffff" preserveAspectRatio="xMidYMid meet" height="999" width="1000" xmlns="http://www.w3.org/2000/svg" xmlns:xlink="http://www.w3.org/1999/xlink"><g id="tight-bounds" transform="matrix(1,0,0,1,0.0740000000000407,0.07400000000001228)"><svg viewBox="0 0 342.85155851775386 342.85155851775386" height="342.85155851775386" width="342.85155851775386"><g><svg></svg></g><g><svg viewBox="0 0 342.85155851775386 342.85155851775386" height="342.85155851775386" width="342.85155851775386"><g><path d="M0 171.426c0-94.676 76.75-171.426 171.426-171.426 94.676 0 171.426 76.75 171.426 171.426 0 94.676-76.75 171.426-171.426 171.426-94.676 0-171.426-76.75-171.426-171.426zM171.426 339.674c92.921 0 168.248-75.327 168.248-168.248 0-92.921-75.327-168.248-168.248-168.248-92.921 0-168.248 75.327-168.248 168.248 0 92.921 75.327 168.248 168.248 168.248z" data-fill-palette-color="tertiary" fill="#010c80" stroke="transparent"></path><ellipse rx="164.56874808852186" ry="164.56874808852186" cx="171.42577925887693" cy="171.42577925887693" fill="#010c80" stroke="transparent" stroke-width="0" fill-opacity="1" data-fill-palette-color="tertiary"></ellipse></g><g transform="matrix(1,0,0,1,64.84655864529837,100.94726781401465)"><svg viewBox="0 0 213.1584412271571 140.95702288972456" height="140.95702288972456" width="213.1584412271571"><g><svg viewBox="0 0 213.1584412271571 140.95702288972456" height="140.95702288972456" width="213.1584412271571"><g><svg viewBox="0 0 213.1584412271571 140.95702288972456" height="140.95702288972456" width="213.1584412271571"><g transform="matrix(1,0,0,1,0,105.71843670043101)"><svg viewBox="0 0 213.1584412271571 35.23858618929354" height="35.23858618929354" width="213.1584412271571"><g><svg viewBox="0 0 213.1584412271571 35.23858618929354" height="35.23858618929354" width="213.1584412271571"><g><svg viewBox="0 0 213.1584412271571 35.23858618929354" height="35.23858618929354" width="213.1584412271571"><g transform="matrix(1,0,0,1,0,0)"><svg width="213.1584412271571" viewBox="0.05 -37.15 228.33999999999997 37.75" height="35.23858618929354" data-palette-color="#ffffff"><path d="M4.2-3.8L7.85-32.95 2.55-33.65 2.55-37.15 19.55-37.15 24.85-16.25 26.05-10.7 27.05-16.25 32.3-37.15 49.2-37.15 49.2-33.65 43.75-32.95 47.75-3.85 51.6-3.3 51.6 0 34.75 0 34.75-3.3 39-3.85 36.9-25.4 36-34.2 34.25-26.2 27.7-1.45 21.15-1.45 14.15-25.5 11.85-34.25 11.25-25.4 9.4-3.85 14.5-3.3 14.5 0 0.05 0 0.05-3.3 4.2-3.8ZM53.1-8Q53.1-12.4 57.57-14.75 62.05-17.1 69.35-17.15L69.35-17.15 69.35-18.15Q69.35-19.95 68.95-21 68.55-22.05 67.5-22.58 66.45-23.1 64.4-23.1L64.4-23.1Q61.95-23.1 60.02-22.53 58.1-21.95 56-21L56-21 54.3-24.6Q55.1-25.25 56.9-26.18 58.7-27.1 61.22-27.78 63.75-28.45 66.5-28.45L66.5-28.45Q70.5-28.45 72.77-27.4 75.05-26.35 76.02-24.15 77-21.95 77-18.15L77-18.15 77-3.3 79.6-3.3 79.6-0.15Q78.45 0.1 76.4 0.35 74.35 0.6 72.9 0.6L72.9 0.6Q71 0.6 70.37 0.05 69.75-0.5 69.75-2.15L69.75-2.15 69.75-3.3Q68.5-1.8 66.4-0.63 64.3 0.55 61.55 0.55L61.55 0.55Q59.2 0.55 57.27-0.48 55.35-1.5 54.22-3.43 53.1-5.35 53.1-8L53.1-8ZM65.45-4.05Q66.35-4.05 67.45-4.58 68.55-5.1 69.35-5.85L69.35-5.85 69.35-13.8Q65.45-13.8 63.57-12.4 61.7-11 61.7-8.8L61.7-8.8Q61.7-6.55 62.7-5.3 63.7-4.05 65.45-4.05L65.45-4.05ZM85.1-3.75L85.1-22.55 82.15-23.45 82.15-27.35 91.25-28.45 91.4-28.45 92.7-27.4 92.7-25.55 92.65-24.4Q94.4-26.05 97.1-27.2 99.8-28.35 102.75-28.35L102.75-28.35Q105.75-28.35 107.47-27.28 109.2-26.2 109.97-23.85 110.75-21.5 110.75-17.45L110.75-17.45 110.75-3.75 113.55-3.35 113.55 0 99.95 0 99.95-3.3 102.4-3.75 102.4-17.4Q102.4-19.8 102.07-21.13 101.75-22.45 100.95-23.05 100.15-23.65 98.65-23.65L98.65-23.65Q96.35-23.65 93.45-21.5L93.45-21.5 93.45-3.75 96.2-3.3 96.2 0 82.35 0 82.35-3.3 85.1-3.75ZM121.84-8.1L123.09-4.15Q123.44-3.6 124.72-3.15 125.99-2.7 127.29-2.7L127.29-2.7Q129.34-2.7 130.42-3.58 131.49-4.45 131.49-5.85L131.49-5.85Q131.49-7.35 130.09-8.33 128.69-9.3 125.49-10.7L125.49-10.7 123.59-11.55Q120.34-13 118.72-15.08 117.09-17.15 117.09-20.35L117.09-20.35Q117.09-22.65 118.44-24.48 119.79-26.3 122.34-27.35 124.89-28.4 128.34-28.4L128.34-28.4Q130.74-28.4 132.49-28.1 134.24-27.8 136.04-27.35L136.04-27.35Q137.24-27 137.84-26.95L137.84-26.95 137.84-20.15 133.39-20.15 132.09-24Q131.84-24.45 130.89-24.83 129.94-25.2 128.74-25.2L128.74-25.2Q126.84-25.2 125.74-24.38 124.64-23.55 124.64-22.15L124.64-22.15Q124.64-20.55 125.89-19.63 127.14-18.7 129.89-17.45L129.89-17.45 130.94-17Q134.99-15.3 137.29-13.33 139.59-11.35 139.59-7.9L139.59-7.9Q139.59-4.2 136.64-1.83 133.69 0.55 127.94 0.55L127.94 0.55Q125.29 0.55 123.24 0.13 121.19-0.3 118.74-1L118.74-1 117.09-1.45 117.09-8.1 121.84-8.1ZM143.39-13.75Q143.39-18.55 145.29-21.88 147.19-25.2 150.42-26.85 153.64-28.5 157.49-28.5L157.49-28.5Q163.79-28.5 167.37-24.73 170.94-20.95 170.94-14.2L170.94-14.2Q170.94-9.25 169.04-5.95 167.14-2.65 163.94-1.05 160.74 0.55 156.79 0.55L156.79 0.55Q150.54 0.55 146.97-3.23 143.39-7 143.39-13.75L143.39-13.75ZM157.29-2.95Q159.69-2.95 160.87-5.53 162.04-8.1 162.04-13.6L162.04-13.6Q162.04-19.45 160.92-22.23 159.79-25 157.14-25L157.14-25Q152.24-25 152.24-14.35L152.24-14.35Q152.24-8.55 153.44-5.75 154.64-2.95 157.29-2.95L157.29-2.95ZM175.49-13.75Q175.49-18.55 177.39-21.88 179.29-25.2 182.51-26.85 185.74-28.5 189.59-28.5L189.59-28.5Q195.89-28.5 199.46-24.73 203.04-20.95 203.04-14.2L203.04-14.2Q203.04-9.25 201.14-5.95 199.24-2.65 196.04-1.05 192.84 0.55 188.89 0.55L188.89 0.55Q182.64 0.55 179.06-3.23 175.49-7 175.49-13.75L175.49-13.75ZM189.39-2.95Q191.79-2.95 192.96-5.53 194.14-8.1 194.14-13.6L194.14-13.6Q194.14-19.45 193.01-22.23 191.89-25 189.24-25L189.24-25Q184.34-25 184.34-14.35L184.34-14.35Q184.34-8.55 185.54-5.75 186.74-2.95 189.39-2.95L189.39-2.95ZM207.49 0L207.49-3.3 210.53-3.75 210.53-22.55 207.59-23.45 207.59-27.35 215.89-28.45 216.03-28.45 217.44-27.4 217.44-26.2 217.28-22.05 217.44-22.05Q217.78-23.2 219.03-24.73 220.28-26.25 222.21-27.38 224.14-28.5 226.39-28.5L226.39-28.5Q227.69-28.5 228.39-28.15L228.39-28.15 228.39-19.45Q227.59-20.05 226.66-20.4 225.74-20.75 224.28-20.75L224.28-20.75Q222.49-20.75 221.03-20.28 219.59-19.8 218.74-19.2L218.74-19.2 218.74-3.75 224.24-3.25 224.24 0 207.49 0Z" opacity="1" transform="matrix(1,0,0,1,0,0)" fill="#ffffff" class="undefined-text-0" data-fill-palette-color="quaternary" id="text-0"></path></svg></g></svg></g></svg></g></svg></g><g transform="matrix(1,0,0,1,57.87949449997488,0)"><svg viewBox="0 0 97.39945222720735 97.39945222720735" height="97.39945222720735" width="97.39945222720735"><g><svg xmlns="http://www.w3.org/2000/svg" xmlns:xlink="http://www.w3.org/1999/xlink" version="1.0" x="0" y="0" viewBox="1 1 48 48" enable-background="new 0 0 50 50" xml:space="preserve" height="97.39945222720735" width="97.39945222720735" class="icon-icon-0" data-fill-palette-color="quaternary" id="icon-0"><g fill="#ffffff" data-fill-palette-color="quaternary"><g fill="#ffffff" data-fill-palette-color="quaternary"><rect x="1" y="1" fill="#ffffff" width="23" height="5" data-fill-palette-color="quaternary"></rect><rect x="1" y="10" fill="#ffffff" width="23" height="5" data-fill-palette-color="quaternary"></rect><rect x="1" y="19" fill="#ffffff" width="23" height="5" data-fill-palette-color="quaternary"></rect></g><g fill="#ffffff" data-fill-palette-color="quaternary"><rect x="26" y="26" fill="#ffffff" width="23" height="5" data-fill-palette-color="quaternary"></rect><rect x="26" y="35" fill="#ffffff" width="23" height="5" data-fill-palette-color="quaternary"></rect><rect x="26" y="44" fill="#ffffff" width="23" height="5" data-fill-palette-color="quaternary"></rect></g><g fill="#ffffff" data-fill-palette-color="quaternary"><rect x="19" y="26" fill="#ffffff" width="5" height="23" data-fill-palette-color="quaternary"></rect><rect x="10" y="26" fill="#ffffff" width="5" height="23" data-fill-palette-color="quaternary"></rect><rect x="1" y="26" fill="#ffffff" width="5" height="23" data-fill-palette-color="quaternary"></rect></g><g fill="#ffffff" data-fill-palette-color="quaternary"><rect x="44" y="1" fill="#ffffff" width="5" height="23" data-fill-palette-color="quaternary"></rect><rect x="35" y="1" fill="#ffffff" width="5" height="23" data-fill-palette-color="quaternary"></rect><rect x="26" y="1" fill="#ffffff" width="5" height="23" data-fill-palette-color="quaternary"></rect></g></g></svg></g></svg></g><g></g></svg></g></svg></g></svg></g></svg></g><defs></defs></svg><rect width="342.85155851775386" height="342.85155851775386" fill="none" stroke="none" visibility="hidden"></rect></g></svg></g></svg>